<svg width="10" height="13" viewBox="0 0 10 13" fill="none" xmlns="http://www.w3.org/2000/svg">
<path d="M1.09166 12.0416C0.79999 12.0416 0.552073 11.9395 0.347907 11.7354C0.14374 11.5312 0.0416565 11.2833 0.0416565 10.9916V3.17496C0.0416565 2.88329 0.14374 2.63538 0.347907 2.43121C0.552073 2.22704 0.79999 2.12496 1.09166 2.12496H1.90832V0.885376H2.79791V2.12496H7.21666V0.885376H8.09166V2.12496H8.90832C9.19999 2.12496 9.44791 2.22704 9.65207 2.43121C9.85624 2.63538 9.95832 2.88329 9.95832 3.17496V10.9916C9.95832 11.2833 9.85624 11.5312 9.65207 11.7354C9.44791 11.9395 9.19999 12.0416 8.90832 12.0416H1.09166ZM1.09166 11.1666H8.90832C8.94721 11.1666 8.9861 11.1472 9.02499 11.1083C9.06388 11.0694 9.08332 11.0305 9.08332 10.9916V5.50829H0.916657V10.9916C0.916657 11.0305 0.936101 11.0694 0.97499 11.1083C1.01388 11.1472 1.05277 11.1666 1.09166 11.1666ZM0.916657 4.63329H9.08332V3.17496C9.08332 3.13607 9.06388 3.09718 9.02499 3.05829C8.9861 3.0194 8.94721 2.99996 8.90832 2.99996H1.09166C1.05277 2.99996 1.01388 3.0194 0.97499 3.05829C0.936101 3.09718 0.916657 3.13607 0.916657 3.17496V4.63329Z" fill="#B1B3C5"/>
</svg>
